# xmcd
#
# Track frame offsets: 
#        150
#        33468
#        64725
#        79827
#        95829
#        122799
#        137835
#        169584
#        184273
#        200373
#        218424
#        230056
#        257479
#        276280
#        288647
#
# Disc length: 4045 seconds
#
# Revision: 1
# Processed by: cddbd v1.5.2PL0 Copyright (c) Steve Scherf et al.
# Submitted via: ExactAudioCopy v0.99pb4
#
DISCID=e30fcb0f
DTITLE=Various Artist - Millenium - The Finest Collection (Ghazals vol 2)
DYEAR=1999
DGENRE=Ghazals
TTITLE0=Begum Akhtar, Faiz Ahmed Faiz - Shaam-E-Firaq (1976)
TTITLE1=Begum Akhtar, Khaiyyam, Sudarshan Faakir - Ishq Mein Gairat-E-
TTITLE1=Jazbaat (1971)
TTITLE2=C.H. Atma, Ravindra Jain, Ravindra Jain - Poochhte Kya Ho Haal
TTITLE2=E-Gham-E-Dil (1971)
TTITLE3=Mukesh, Khaiyyam, Mirza Ghalib(Traditional) - Na Huyi Gar Mere
TTITLE3=Marne Se (1962)
TTITLE4=Begum Akhtar, Khaiyyam, Momin(Traditional) - Woh Jo Hum Mein T
TTITLE4=um Mein Qarar Tha (1975)
TTITLE5=Mukesh, Khaiyyam, Mirza Ghalib(Traditional) - Hum Rashk Ko Apn
TTITLE5=e
TTITLE6=Chhaya Ganguli, Bhupinder Singh, Ibraheem Ashq - Naaz Tha Khud
TTITLE6=Par (1988)
TTITLE7=Mohd Rafi, Khaiyyam, Mirza Ghalib(Traditional) - Yeh Na Thi Ha
TTITLE7=mari Qismat
TTITLE8=Lata Mangeshkar, Faiyaz Shaukat, Mirza Ghalib(Traditional) - D
TTITLE8=aher Mein Naqsh-E-Wafa (1961)
TTITLE9=Mohd. Rafi, Taj Ahmed Khan, Sudarshan Faakir - Falsafe Ishq Me
TTITLE9=in (1976)
TTITLE10=Lata Mangeshkar, K Mahavir, Khalish Dehlavi - Ahd-E-Gham Mein
TTITLE10=Bhi (1973)
TTITLE11=Mukesh, Khaiyyam, Jan Nisar Akhtar - Zara Si Baat Pe (1972)
TTITLE12=Mohd Rafi, Khaiyyam, Mirza Ghalib(Traditional) - Muddat Huyi 
TTITLE12=Hai (1968)
TTITLE13=Mohd Rafi, Khaiyyam, Mirza Ghalib(Traditional) - Nukta Chin H
TTITLE13=ai (1968)
TTITLE14=Mukesh, Kishore Desai, Shiv Kumar 'Saroj' - Baharon Se Keh Do
TTITLE14=(1965)
EXTD=
EXTT0=
EXTT1=
EXTT2=
EXTT3=
EXTT4=
EXTT5=
EXTT6=
EXTT7=
EXTT8=
EXTT9=
EXTT10=
EXTT11=
EXTT12=
EXTT13=
EXTT14=
PLAYORDER=
